<svg height="512pt" viewBox="0 0 512 512" width="512pt" xmlns="http://www.w3.org/2000/svg"><path d="m512 256c0 141.386719-114.613281 256-256 256s-256-114.613281-256-256 114.613281-256 256-256 256 114.613281 256 256zm0 0" fill="#66baed"/><path d="m154.328125 0h325.601563c17.710937 0 32.070312 14.359375 32.070312 32.070312v307.082032c0 17.710937-14.359375 32.066406-32.070312 32.066406h-325.601563c-17.714844 0-32.070313-14.355469-32.070313-32.066406v-307.082032c0-17.710937 14.355469-32.070312 32.070313-32.070312zm0 0" fill="#3d4159"/><path d="m154.328125 350.320312c-6.164063 0-11.171875-5.007812-11.171875-11.167968v-307.082032c0-6.160156 5.011719-11.171874 11.171875-11.171874h325.601563c6.160156 0 11.171874 5.011718 11.171874 11.171874v307.082032c0 6.160156-5.011718 11.167968-11.171874 11.167968zm0 0" fill="#f2f0ec"/><path d="m183.519531 281.21875h288.117188v29.398438h-288.117188zm0 0" fill="#713775"/><path d="m200.179688 46.023438h33.320312v209.714843h-33.320312zm0 0" fill="#713775"/><path d="m274.003906 82.414062h33.320313v173.324219h-33.320313zm0 0" fill="#f74f4f"/><path d="m347.832031 46.023438h33.320313v209.714843h-33.320313zm0 0" fill="#66baed"/><path d="m421.65625 124.421875h33.320312v131.316406h-33.320312zm0 0" fill="#3fb777"/><path d="m375.726562 426.402344v55.921875c-10.039062 5.328125-20.46875 10-31.25 13.960937-7.191406 2.652344-14.535156 4.992188-22.027343 6.988282v-76.871094zm0 0" fill="#dde8ed"/><path d="m344.476562 426.402344v69.882812c-7.191406 2.652344-14.535156 4.992188-22.027343 6.988282v-76.871094zm0 0" fill="#bfd5de"/><path d="m425.277344 411c0 8.503906-6.898438 15.402344-15.402344 15.402344h-87.425781v-15.402344c0-8.507812 6.894531-15.402344 15.402343-15.402344h72.023438c4.253906 0 8.109375 1.722656 10.886719 4.511719 1.464843 1.464844 2.632812 3.230469 3.417969 5.183594.710937 1.765625 1.097656 3.691406 1.097656 5.707031zm0 0" fill="#eab599"/><path d="m424.179688 405.292969c-2.269532 5.683593-7.816407 9.699219-14.304688 9.699219h-87.425781v-3.992188c0-8.507812 6.894531-15.402344 15.402343-15.402344h72.023438c4.253906 0 8.109375 1.722656 10.886719 4.511719 1.464843 1.464844 2.632812 3.230469 3.417969 5.183594zm0 0" fill="#f6caae"/><path d="m306.890625 449.578125v29.246094c-26.855469 15.234375-56.75 25.757812-88.535156 30.425781-42.714844-6.300781-82.003907-23.144531-115.117188-47.804688-16.207031-12.066406-30.9375-26.015624-43.875-41.523437 11.683594-35.652344 43.875-62.023437 82.640625-65.160156 2.570313-.207031 5.164063-.3125 7.785156-.3125h61.953126c7.324218 0 14.449218.816406 21.292968 2.382812 42.296875 9.675781 73.855469 47.53125 73.855469 92.746094zm0 0" fill="#bfd5de"/><path d="m306.890625 449.578125v57.363281c-16.449219 3.3125-33.457031 5.058594-50.886719 5.058594-57.261718 0-110.121094-18.796875-152.765625-50.554688v-11.867187c0-52.539063 42.601563-95.128906 95.148438-95.128906h13.355469c52.558593 0 95.148437 42.589843 95.148437 95.128906zm0 0" fill="#dde8ed"/><path d="m206.304688 388.773438-25.539063 40.960937-25.535156-40.960937" fill="#f74f4f"/><path d="m203.226562 506.542969c-14.378906-3.007813-28.316406-7.230469-41.691406-12.546875l19.234375-74.917969zm0 0" fill="#f74f4f"/><g fill="#bfd5de"><path d="m180.761719 393.394531-42.832031 23.800781-13.027344-60.601562 26.609375-15.675781"/><path d="m180.761719 393.394531 42.828125 23.800781 13.027344-60.601562-26.613282-15.675781"/><path d="m219.433594 446.453125h51.199218v15.671875h-51.199218zm0 0"/></g><path d="m214.730469 317.800781v41.65625c0 15.25-10.054688 28.140625-23.90625 32.421875-3.167969.980469-6.546875 1.515625-10.042969 1.515625-18.742188 0-33.9375-15.195312-33.9375-33.9375v-41.65625zm0 0" fill="#eab599"/><path d="m214.730469 356.816406v2.640625c0 15.25-10.054688 28.140625-23.90625 32.421875-12.496094-3.84375-21.890625-14.707031-23.625-28.003906 2.265625.140625 4.546875.210938 6.835937.210938 6.421875 0 12.71875-.511719 18.851563-1.519532 7.554687-1.210937 14.855469-3.15625 21.84375-5.75zm0 0" fill="#f6caae"/><path d="m87.679688 249.535156c0 15.710938-11.480469 28.742188-26.511719 31.160156-1.640625.265626-3.332031.402344-5.054688.402344-17.4375 0-31.566406-14.125-31.566406-31.5625s14.128906-31.566406 31.566406-31.566406c1.722657 0 3.414063.140625 5.054688.40625 15.03125 2.417969 26.511719 15.445312 26.511719 31.160156zm0 0" fill="#f6caae"/><path d="m87.679688 249.535156c0 15.710938-11.480469 28.742188-26.511719 31.160156-2.730469-9.929687-4.1875-20.378906-4.1875-31.160156 0-10.785156 1.457031-21.234375 4.1875-31.160156 15.03125 2.417969 26.511719 15.445312 26.511719 31.160156zm0 0" fill="#eab599"/><path d="m67.394531 249.535156c0 6.230469-5.050781 11.28125-11.28125 11.28125s-11.28125-5.050781-11.28125-11.28125c0-6.230468 5.050781-11.28125 11.28125-11.28125s11.28125 5.050782 11.28125 11.28125zm0 0" fill="#eab599"/><path d="m273.894531 249.535156c0 15.710938 11.480469 28.742188 26.507813 31.160156 1.644531.265626 3.332031.402344 5.058594.402344 17.4375 0 31.566406-14.125 31.566406-31.5625s-14.128906-31.566406-31.566406-31.566406c-1.726563 0-3.414063.140625-5.058594.40625-15.027344 2.417969-26.507813 15.445312-26.507813 31.160156zm0 0" fill="#f6caae"/><path d="m273.894531 249.535156c0 15.710938 11.480469 28.742188 26.507813 31.160156 2.730468-9.929687 4.191406-20.378906 4.191406-31.160156 0-10.785156-1.457031-21.234375-4.191406-31.160156-15.027344 2.417969-26.507813 15.445312-26.507813 31.160156zm0 0" fill="#eab599"/><path d="m298.230469 188.039062v44.722657c0 58.441406-42.695313 106.921875-98.597657 115.917969-.1875.03125-.386718.0625-.574218.097656-5.945313.949218-12.046875 1.417968-18.277344 1.417968-64.855469 0-117.433594-52.578124-117.433594-117.433593v-44.722657c0-13.65625 2.328125-26.78125 6.632813-38.976562 16.0625-45.703125 59.613281-78.46875 110.800781-78.46875h.011719c6.21875 0 12.332031.480469 18.285156 1.417969 56.175781 8.777343 99.152344 57.386719 99.152344 116.027343zm0 0" fill="#eab599"/><path d="m316.742188 249.535156c0 6.230469-5.050782 11.28125-11.28125 11.28125-6.230469 0-11.28125-5.050781-11.28125-11.28125 0-6.230468 5.050781-11.28125 11.28125-11.28125 6.230468 0 11.28125 5.050782 11.28125 11.28125zm0 0" fill="#eab599"/><path d="m298.230469 188.039062v44.722657c0 58.441406-42.695313 106.921875-98.597657 115.917969-.1875.03125-.386718.0625-.574218.097656-56.175782-8.777344-99.140625-57.386719-99.140625-116.015625v-44.722657c0-58.640624 42.976562-107.25 99.160156-116.027343 56.175781 8.777343 99.152344 57.386719 99.152344 116.027343zm0 0" fill="#f6caae"/><path d="m155.777344 225.921875c0 7.359375-5.964844 13.320313-13.324219 13.320313-7.355469 0-13.320313-5.960938-13.320313-13.320313s5.964844-13.324219 13.320313-13.324219c7.359375 0 13.324219 5.964844 13.324219 13.324219zm0 0" fill="#3d4159"/><path d="m232.445312 225.921875c0 7.359375-5.964843 13.320313-13.324218 13.320313-7.355469 0-13.320313-5.960938-13.320313-13.320313s5.964844-13.324219 13.320313-13.324219c7.359375 0 13.324218 5.964844 13.324218 13.324219zm0 0" fill="#3d4159"/><path d="m153.058594 223.570312c0 3.152344-2.554688 5.707032-5.707032 5.707032-3.152343 0-5.707031-2.554688-5.707031-5.707032 0-3.152343 2.554688-5.707031 5.707031-5.707031 3.152344 0 5.707032 2.554688 5.707032 5.707031zm0 0" fill="#fff"/><path d="m230.382812 223.570312c0 3.152344-2.554687 5.707032-5.707031 5.707032-3.15625 0-5.710937-2.554688-5.710937-5.707032 0-3.152343 2.554687-5.707031 5.710937-5.707031 3.152344 0 5.707031 2.554688 5.707031 5.707031zm0 0" fill="#fff"/><path d="m194.109375 254.242188h-26.644531c-3.171875 0-5.746094-2.574219-5.746094-5.75 0-3.171876 2.574219-5.746094 5.746094-5.746094h26.644531c3.175781 0 5.75 2.574218 5.75 5.746094 0 3.175781-2.574219 5.75-5.75 5.75zm0 0" fill="#eab599"/><path d="m180.789062 290.601562c-9.835937 0-19.667968-2.464843-28.632812-7.394531-2.527344-1.386719-3.453125-4.566406-2.0625-7.09375 1.390625-2.527343 4.566406-3.449219 7.09375-2.0625 14.777344 8.125 32.421875 8.125 47.199219 0 2.527343-1.390625 5.703125-.46875 7.09375 2.0625 1.390625 2.527344.46875 5.707031-2.0625 7.09375-8.960938 4.929688-18.796875 7.394531-28.628907 7.394531zm0 0" fill="#eab599"/><path d="m298.230469 147.453125v45.808594h-21.859375v-35.871094l-157.78125-29.320313-33.382813-6.207031v71.398438h-21.859375v-45.808594c0-52.226563 42.328125-94.554687 94.542969-94.554687h45.796875c1.242188 0 2.488281.019531 3.730469.085937 50.480469 1.941406 90.8125 43.488281 90.8125 94.46875zm0 0" fill="#e8c934"/><path d="m298.230469 147.453125v45.808594h-21.859375v-35.871094l-157.78125-29.320313c8.695312-41.753906 44.921875-73.394531 88.828125-75.085937 50.480469 1.941406 90.8125 43.488281 90.8125 94.46875zm0 0" fill="#ffe152"/></svg>